<svg width="130" height="19" viewBox="0 0 130 19" fill="none" xmlns="http://www.w3.org/2000/svg">
<path d="M5.3418 18.1172C4.37174 18.1172 3.52539 17.8893 2.80273 17.4336C2.08008 16.9779 1.51693 16.3398 1.11328 15.5195C0.716146 14.6927 0.517578 13.7227 0.517578 12.6094C0.517578 11.5091 0.709635 10.5488 1.09375 9.72852C1.48438 8.9082 2.03125 8.27344 2.73438 7.82422C3.4375 7.36849 4.26107 7.14062 5.20508 7.14062C5.81706 7.14062 6.36393 7.23503 6.8457 7.42383C7.32747 7.61263 7.75065 7.84049 8.11523 8.10742L7.00195 10.5098C6.75456 10.2689 6.49089 10.0866 6.21094 9.96289C5.93099 9.83268 5.64779 9.76758 5.36133 9.76758C4.98372 9.76758 4.64844 9.88477 4.35547 10.1191C4.0625 10.347 3.83138 10.6758 3.66211 11.1055C3.49284 11.5286 3.4082 12.0332 3.4082 12.6191C3.4082 13.1921 3.48633 13.6966 3.64258 14.1328C3.80534 14.5625 4.03646 14.8978 4.33594 15.1387C4.64193 15.373 5 15.4902 5.41016 15.4902C5.72266 15.4902 6.02865 15.4251 6.32812 15.2949C6.63411 15.1647 6.86849 14.9987 7.03125 14.7969L8.0957 17.2773C7.75065 17.5312 7.34049 17.7363 6.86523 17.8926C6.38997 18.0423 5.88216 18.1172 5.3418 18.1172ZM12.7934 18.1562C11.8428 18.1562 11.0193 17.9316 10.3227 17.4824C9.63255 17.0332 9.0987 16.3984 8.72109 15.5781C8.35 14.7513 8.16445 13.7715 8.16445 12.6387C8.16445 11.5059 8.35 10.5293 8.72109 9.70898C9.0987 8.88867 9.63255 8.25716 10.3227 7.81445C11.0193 7.36523 11.8428 7.14062 12.7934 7.14062C13.7569 7.14062 14.5837 7.36523 15.2738 7.81445C15.9704 8.25716 16.5043 8.89193 16.8754 9.71875C17.253 10.5391 17.4418 11.5124 17.4418 12.6387C17.4418 13.765 17.253 14.7415 16.8754 15.5684C16.5043 16.3952 15.9704 17.0332 15.2738 17.4824C14.5837 17.9316 13.7569 18.1562 12.7934 18.1562ZM12.7934 15.5586C13.3598 15.5586 13.7927 15.3014 14.0922 14.7871C14.3982 14.2728 14.5512 13.5566 14.5512 12.6387C14.5512 11.7337 14.3982 11.0241 14.0922 10.5098C13.7927 9.99544 13.3598 9.73828 12.7934 9.73828C12.24 9.73828 11.8103 9.99544 11.5043 10.5098C11.2048 11.0176 11.0551 11.7272 11.0551 12.6387C11.0551 13.5566 11.2048 14.2728 11.5043 14.7871C11.8103 15.3014 12.24 15.5586 12.7934 15.5586ZM21.6316 18.1562C21.0001 18.1562 20.437 18.0065 19.9422 17.707C19.4474 17.401 19.0568 16.9844 18.7703 16.457C18.4839 15.9232 18.3406 15.3112 18.3406 14.6211V7.29688H21.3875V14.2793C21.3875 14.6699 21.4982 14.9954 21.7195 15.2559C21.9474 15.5098 22.2339 15.6367 22.5789 15.6367C22.8198 15.6367 23.0314 15.5781 23.2137 15.4609C23.396 15.3372 23.5392 15.1745 23.6434 14.9727C23.754 14.7708 23.8094 14.5462 23.8094 14.2988V7.29688H26.8563V14.4355C26.8563 14.748 26.9083 14.9922 27.0125 15.168C27.1232 15.3372 27.3217 15.487 27.6082 15.6172L26.4266 18.1562C25.7951 17.987 25.2775 17.7135 24.8738 17.3359C24.4767 16.9583 24.2684 16.5286 24.2488 16.0469L24.8348 16.7012H23.7508L24.7371 15.9297C24.5288 16.5938 24.1414 17.1309 23.575 17.541C23.0086 17.9512 22.3608 18.1562 21.6316 18.1562ZM28.5461 18V7.29688H31.4758V8.75195H31.7785L31.1926 9.49414C31.3098 9.14258 31.4953 8.78451 31.7492 8.41992C32.0031 8.05534 32.3286 7.7526 32.7258 7.51172C33.1294 7.26432 33.6112 7.14062 34.1711 7.14062C34.4185 7.14062 34.6496 7.16341 34.8645 7.20898C35.0858 7.25456 35.2323 7.30339 35.3039 7.35547L34.0539 10.3535C34.0018 10.2949 33.8911 10.2396 33.7219 10.1875C33.5591 10.1354 33.3964 10.1094 33.2336 10.1094C32.9732 10.1094 32.716 10.1908 32.4621 10.3535C32.2147 10.5163 32.0064 10.7702 31.8371 11.1152C31.6743 11.4603 31.593 11.9128 31.593 12.4727V18H28.5461ZM38.8883 18.1562C38.1721 18.1562 37.4658 18.0195 36.7691 17.7461C36.079 17.4661 35.5029 17.1276 35.0406 16.7305L36.0563 14.2402C36.4143 14.6309 36.8245 14.9596 37.2867 15.2266C37.7555 15.487 38.2145 15.6172 38.6637 15.6172C39.0087 15.6172 39.2724 15.5326 39.4547 15.3633C39.637 15.1875 39.7281 14.9824 39.7281 14.748C39.7281 14.4746 39.5979 14.2435 39.3375 14.0547C39.0836 13.8594 38.6832 13.6706 38.1363 13.4883C37.622 13.3125 37.1565 13.0846 36.7398 12.8047C36.3232 12.5182 35.9879 12.1699 35.734 11.7598C35.4801 11.3431 35.3531 10.8581 35.3531 10.3047C35.3531 9.66016 35.5159 9.10352 35.8414 8.63477C36.1734 8.15951 36.6161 7.79167 37.1695 7.53125C37.7294 7.27083 38.3479 7.14062 39.025 7.14062C39.6174 7.14062 40.2001 7.24154 40.773 7.44336C41.346 7.63867 41.8473 7.90885 42.277 8.25391L41.1832 10.5586C40.9553 10.3047 40.6461 10.0898 40.2555 9.91406C39.8648 9.73828 39.5165 9.65039 39.2105 9.65039C38.9632 9.65039 38.7385 9.71875 38.5367 9.85547C38.3349 9.99219 38.234 10.1908 38.234 10.4512C38.234 10.679 38.3382 10.8809 38.5465 11.0566C38.7613 11.2259 39.1715 11.418 39.777 11.6328C40.3043 11.8151 40.7828 12.0495 41.2125 12.3359C41.6422 12.6224 41.9807 12.974 42.2281 13.3906C42.4755 13.8073 42.5992 14.3021 42.5992 14.875C42.5992 15.5326 42.4332 16.1087 42.1012 16.6035C41.7691 17.0918 41.3232 17.4727 40.7633 17.7461C40.2034 18.0195 39.5784 18.1562 38.8883 18.1562ZM48.1367 18.1562C47.1016 18.1562 46.2161 17.9349 45.4805 17.4922C44.7448 17.043 44.1816 16.4017 43.791 15.5684C43.4004 14.735 43.2051 13.7357 43.2051 12.5703C43.2051 11.4701 43.3776 10.5163 43.7227 9.70898C44.0742 8.89518 44.582 8.26367 45.2461 7.81445C45.9102 7.36523 46.7109 7.14062 47.6484 7.14062C48.5273 7.14062 49.2826 7.33919 49.9141 7.73633C50.5456 8.13346 51.0306 8.69987 51.3691 9.43555C51.7077 10.1712 51.877 11.0501 51.877 12.0723C51.877 12.3783 51.8639 12.6777 51.8379 12.9707C51.8184 13.2637 51.7923 13.4948 51.7598 13.6641H45.6172V11.75H49.1133C49.1133 11.0078 48.9766 10.4512 48.7031 10.0801C48.4362 9.70898 48.0684 9.52344 47.5996 9.52344C47.2155 9.52344 46.8932 9.65039 46.6328 9.9043C46.3724 10.1517 46.1771 10.5 46.0469 10.9492C45.9232 11.3919 45.8613 11.9095 45.8613 12.502C45.8613 13.1855 45.9492 13.7682 46.125 14.25C46.3008 14.7253 46.5645 15.0898 46.916 15.3438C47.2676 15.5911 47.7103 15.7148 48.2441 15.7148C48.6348 15.7148 49.0059 15.6562 49.3574 15.5391C49.709 15.4154 49.9759 15.2656 50.1582 15.0898L51.2227 17.3945C50.8581 17.6289 50.3958 17.8145 49.8359 17.9512C49.2826 18.0879 48.7161 18.1562 48.1367 18.1562ZM58.1937 18.1875C57.4906 18.1875 56.7914 18.0859 56.0961 17.8828C55.4086 17.6719 54.7602 17.3984 54.1508 17.0625C53.5492 16.7188 53.0336 16.3398 52.6039 15.9258L54.0805 12.375C54.4008 12.7734 54.7758 13.1445 55.2055 13.4883C55.6352 13.8242 56.0883 14.0977 56.5648 14.3086C57.0414 14.5117 57.518 14.6133 57.9945 14.6133C58.393 14.6133 58.7289 14.5391 59.0023 14.3906C59.2836 14.2344 59.4945 14.0273 59.6352 13.7695C59.7758 13.5117 59.8461 13.2266 59.8461 12.9141C59.8461 12.5781 59.7523 12.2812 59.5648 12.0234C59.3773 11.7578 59.1 11.5156 58.7328 11.2969C58.3656 11.0781 57.9086 10.8711 57.3617 10.6758C56.6586 10.418 55.9711 10.0625 55.2992 9.60938C54.6352 9.15625 54.0883 8.58984 53.6586 7.91016C53.2289 7.23047 53.0141 6.41797 53.0141 5.47266C53.0141 4.48828 53.2484 3.62891 53.7172 2.89453C54.1859 2.15234 54.8227 1.57422 55.6273 1.16016C56.432 0.746094 57.3344 0.539062 58.3344 0.539062C59.1625 0.539062 59.9984 0.699219 60.8422 1.01953C61.6937 1.33984 62.4437 1.80469 63.0922 2.41406L61.7094 5.75391C61.4984 5.46484 61.2133 5.19922 60.8539 4.95703C60.4945 4.70703 60.1078 4.50781 59.6937 4.35938C59.2797 4.20312 58.893 4.125 58.5336 4.125C58.0414 4.125 57.6234 4.26172 57.2797 4.53516C56.9359 4.80859 56.7641 5.16797 56.7641 5.61328C56.7641 6.07422 56.9633 6.47266 57.3617 6.80859C57.768 7.14453 58.3773 7.46094 59.1898 7.75781C60.0023 8.05469 60.7406 8.42969 61.4047 8.88281C62.0687 9.33594 62.6 9.89453 62.9984 10.5586C63.3969 11.2227 63.5961 12.0234 63.5961 12.9609C63.5961 14.0078 63.3578 14.9258 62.8812 15.7148C62.4047 16.4961 61.7562 17.1055 60.9359 17.543C60.1156 17.9727 59.2016 18.1875 58.1937 18.1875ZM71.4716 18.1875C70.0184 18.1875 68.7489 17.8242 67.663 17.0977C66.5848 16.3711 65.745 15.3477 65.1434 14.0273C64.5497 12.6992 64.2528 11.1406 64.2528 9.35156C64.2528 7.57031 64.5497 6.01953 65.1434 4.69922C65.745 3.37891 66.5848 2.35547 67.663 1.62891C68.7489 0.902344 70.0184 0.539062 71.4716 0.539062C72.9325 0.539062 74.2059 0.902344 75.2919 1.62891C76.3778 2.35547 77.2177 3.37891 77.8114 4.69922C78.413 6.01953 78.7137 7.57031 78.7137 9.35156C78.7137 11.1406 78.413 12.6992 77.8114 14.0273C77.2177 15.3477 76.3778 16.3711 75.2919 17.0977C74.2059 17.8242 72.9325 18.1875 71.4716 18.1875ZM71.4833 14.6953C72.1786 14.6953 72.7841 14.4766 73.2997 14.0391C73.8231 13.5938 74.2255 12.9727 74.5067 12.1758C74.788 11.3789 74.9286 10.4375 74.9286 9.35156C74.9286 8.26562 74.7841 7.32422 74.495 6.52734C74.2137 5.73047 73.8153 5.11719 73.2997 4.6875C72.7841 4.25 72.1747 4.03125 71.4716 4.03125C70.7762 4.03125 70.1708 4.25 69.6552 4.6875C69.1473 5.11719 68.7489 5.73047 68.4598 6.52734C68.1786 7.32422 68.038 8.26562 68.038 9.35156C68.038 10.4375 68.1786 11.3828 68.4598 12.1875C68.7489 12.9844 69.1473 13.6016 69.6552 14.0391C70.1708 14.4766 70.7802 14.6953 71.4833 14.6953ZM86.0736 18.1875C84.8627 18.1875 83.808 17.9375 82.9095 17.4375C82.0189 16.9375 81.3236 16.2383 80.8236 15.3398C80.3314 14.4414 80.0853 13.3867 80.0853 12.1758V0.726562H83.8705V12.2812C83.8705 13.0391 84.0697 13.6445 84.4681 14.0977C84.8744 14.5508 85.4095 14.7773 86.0736 14.7773C86.7455 14.7773 87.2806 14.5547 87.6791 14.1094C88.0775 13.6641 88.2767 13.0547 88.2767 12.2812V0.726562H92.0619V12.1758C92.0619 13.3867 91.8158 14.4453 91.3236 15.3516C90.8314 16.25 90.1361 16.9492 89.2377 17.4492C88.347 17.9414 87.2923 18.1875 86.0736 18.1875ZM97.0077 12.0117V8.87109H99.41C100.012 8.87109 100.504 8.64844 100.887 8.20312C101.277 7.75 101.473 7.14062 101.473 6.375C101.473 5.67188 101.289 5.125 100.922 4.73438C100.555 4.33594 100.031 4.13672 99.3514 4.13672H97.0077V0.726562H99.9022C100.894 0.726562 101.793 0.929687 102.598 1.33594C103.41 1.74219 104.051 2.33594 104.519 3.11719C104.988 3.89844 105.223 4.84766 105.223 5.96484C105.223 7.10547 104.965 8.13281 104.449 9.04688C103.933 9.95312 103.199 10.6758 102.246 11.2148C101.293 11.7461 100.164 12.0117 98.8592 12.0117H97.0077ZM94.3006 18V0.726562H98.0858V18H94.3006ZM102.305 18L99.3631 11.4609L102.047 9.21094L106.43 18H102.305ZM114.375 18.1875C112.774 18.1875 111.379 17.8242 110.192 17.0977C109.012 16.3633 108.094 15.332 107.438 14.0039C106.782 12.6758 106.453 11.1211 106.453 9.33984C106.453 7.55859 106.774 6.01172 107.414 4.69922C108.063 3.37891 108.969 2.35547 110.133 1.62891C111.305 0.902344 112.684 0.539062 114.27 0.539062C115.098 0.539062 115.914 0.652344 116.719 0.878906C117.532 1.10547 118.258 1.44141 118.899 1.88672L117.481 5.27344C117.145 4.85938 116.696 4.55078 116.133 4.34766C115.571 4.13672 115.004 4.03125 114.434 4.03125C113.582 4.03125 112.84 4.25 112.207 4.6875C111.582 5.125 111.098 5.74219 110.754 6.53906C110.41 7.32812 110.239 8.25781 110.239 9.32812C110.239 10.4219 110.414 11.3711 110.766 12.1758C111.125 12.9727 111.625 13.5938 112.266 14.0391C112.907 14.4766 113.664 14.6953 114.539 14.6953C115.125 14.6953 115.7 14.582 116.262 14.3555C116.825 14.1289 117.254 13.8164 117.551 13.418L118.957 16.8047C118.309 17.2656 117.586 17.6133 116.789 17.8477C116 18.0742 115.196 18.1875 114.375 18.1875ZM120.153 18V0.726562H129.305V4.13672H123.938V7.61719H128.45V10.9219H123.938V14.5898H129.305V18H120.153Z" fill="#13193F"/>
</svg>
